<?xml version="1.0" encoding="UTF-8"?>
<svg xmlns="http://www.w3.org/2000/svg" xmlns:xlink="http://www.w3.org/1999/xlink" width="39pt" height="25pt" viewBox="0 0 39 25" version="1.1">
<defs>
<linearGradient id="linear0" gradientUnits="userSpaceOnUse" x1="222.52" y1="249.2" x2="221.34" y2="224.45" gradientTransform="matrix(0.15649,0,0,0.159081,-16.758466,-19.472914)">
<stop offset="0" style="stop-color:rgb(36.470588%,64.313725%,41.960784%);stop-opacity:1;"/>
<stop offset="1" style="stop-color:rgb(12.54902%,39.607843%,18.039216%);stop-opacity:1;"/>
</linearGradient>
<radialGradient id="radial0" gradientUnits="userSpaceOnUse" cx="155.31" cy="233.57" fx="155.31" fy="233.57" r="31.812" gradientTransform="matrix(1,0,0,1.0318,0.000000000000014211,-7.4166)">
<stop offset="0" style="stop-color:rgb(100%,90.196078%,0%);stop-opacity:1;"/>
<stop offset="0.68" style="stop-color:rgb(67.058824%,60.392157%,0%);stop-opacity:0.811765;"/>
<stop offset="1" style="stop-color:rgb(100%,90.196078%,0%);stop-opacity:1;"/>
</radialGradient>
<radialGradient id="radial1" gradientUnits="userSpaceOnUse" cx="155.06" cy="232.3" fx="155.06" fy="232.3" r="7.8211" gradientTransform="matrix(0.136722,0,0,0.138101,-13.772489,-14.597592)">
<stop offset="0" style="stop-color:rgb(46.27451%,41.960784%,1.960784%);stop-opacity:1;"/>
<stop offset="1" style="stop-color:rgb(74.509804%,68.235294%,6.666667%);stop-opacity:0.784314;"/>
</radialGradient>
<radialGradient id="radial2" gradientUnits="userSpaceOnUse" cx="295.22" cy="243.92" fx="295.22" fy="243.92" r="19.69" gradientTransform="matrix(1,0,0,1.0128,0,-3.1284)">
<stop offset="0" style="stop-color:rgb(100%,90.196078%,0%);stop-opacity:1;"/>
<stop offset="0.68" style="stop-color:rgb(67.058824%,60.392157%,0%);stop-opacity:0.811765;"/>
<stop offset="1" style="stop-color:rgb(100%,90.196078%,0%);stop-opacity:1;"/>
</radialGradient>
</defs>
<g id="surface1">
<path style="fill-rule:nonzero;fill:rgb(0%,0%,0%);fill-opacity:1;stroke-width:1;stroke-linecap:butt;stroke-linejoin:miter;stroke:rgb(0%,0%,0%);stroke-opacity:1;stroke-miterlimit:4;" d="M 165.125735 128.768367 L 156.563877 128.498262 C 155.041214 129.529574 154.517018 132.549847 155.540447 134.563362 L 164.626502 134.808913 Z M 165.125735 128.768367 " transform="matrix(0.15649,0,0,0.159081,-16.758466,-19.472914)"/>
<path style="fill-rule:nonzero;fill:rgb(14.901961%,14.901961%,14.901961%);fill-opacity:1;stroke-width:1;stroke-linecap:butt;stroke-linejoin:miter;stroke:rgb(14.901961%,14.901961%,14.901961%);stroke-opacity:1;stroke-miterlimit:4;" d="M 225.183555 163.759331 C 225.183555 163.759331 220.890145 161.598485 217.869781 162.507023 C 216.946198 164.274987 217.145892 168.400238 217.145892 168.400238 L 213.401639 168.031912 C 213.401639 168.031912 213.077137 168.719454 211.779129 169.112334 L 211.604397 171.960722 C 211.604397 171.960722 217.670087 176.257858 217.869781 178.762474 L 219.691984 203.931413 C 220.790298 205.895818 225.533019 203.759527 227.504992 205.183721 Z M 225.183555 163.759331 " transform="matrix(0.15649,0,0,0.159081,-16.758466,-19.472914)"/>
<path style="fill:none;stroke-width:1.4674;stroke-linecap:butt;stroke-linejoin:miter;stroke:rgb(14.901961%,14.901961%,14.901961%);stroke-opacity:1;stroke-miterlimit:4;" d="M 270.086073 149.917984 C 270.114064 150.489146 266.324067 150.959534 261.697332 150.975473 C 257.04767 150.97196 253.285238 150.480391 253.298176 149.90746 C 253.270185 149.336299 257.060183 148.865911 261.686918 148.849972 C 266.336579 148.853485 270.099011 149.345054 270.086073 149.917984 Z M 270.086073 149.917984 " transform="matrix(0.0990701,-0.0908133,0.0840535,0.107037,-22.444514,14.304775)"/>
<path style="fill:none;stroke-width:1;stroke-linecap:butt;stroke-linejoin:miter;stroke:rgb(14.901961%,14.901961%,14.901961%);stroke-opacity:1;stroke-miterlimit:4;" d="M 204.814818 168.793119 L 212.003784 169.038669 " transform="matrix(0.15649,0,0,0.159081,-16.758466,-19.472914)"/>
<path style="fill:none;stroke-width:1;stroke-linecap:butt;stroke-linejoin:miter;stroke:rgb(14.901961%,14.901961%,14.901961%);stroke-opacity:1;stroke-miterlimit:4;" d="M 214.025681 160.591728 L 213.401639 168.031912 " transform="matrix(0.15649,0,0,0.159081,-16.758466,-19.472914)"/>
<path style="fill-rule:nonzero;fill:rgb(0%,0%,0%);fill-opacity:1;stroke-width:1;stroke-linecap:butt;stroke-linejoin:miter;stroke:rgb(0%,0%,0%);stroke-opacity:1;stroke-miterlimit:4;" d="M 224.634398 133.040948 L 225.158594 204.103298 L 211.953861 204.275184 L 215.723076 216.429939 L 235.16823 215.717843 L 236.416315 203.931413 L 229.826429 204.275184 L 228.927808 133.212833 Z M 224.634398 133.040948 " transform="matrix(0.15649,0,0,0.159081,-16.758466,-19.472914)"/>
<path style=" stroke:none;fill-rule:nonzero;fill:rgb(0%,0%,0%);fill-opacity:1;" d="M 2.199219 10.539062 C 6.097656 4.90625 14.777344 8.34375 15.789062 13.246094 L 16.164062 17.984375 L 23.949219 17.964844 L 23.710938 19.328125 L 14.777344 19.414062 C 15.175781 8 3.347656 11.816406 2.199219 10.539062 Z M 2.199219 10.539062 "/>
<path style=" stroke:none;fill-rule:nonzero;fill:rgb(12.54902%,39.607843%,18.039216%);fill-opacity:1;" d="M 13.34375 0.425781 C 10.929688 0.425781 8.761719 0.519531 8.574219 0.730469 C 8.414062 1.050781 8.0625 6.550781 7.824219 7.4375 L 6.558594 7.4375 C 6.558594 7.4375 6.476562 7.199219 6.160156 7.15625 C 5.765625 7.078125 4.390625 7.375 4.390625 7.375 C 4.234375 7.65625 4.109375 8.5625 4.109375 8.5625 C 4.109375 8.5625 2.332031 9.96875 2.132812 10.492188 C 2.277344 11.128906 3.675781 7.746094 9 8.054688 L 9.171875 7.164062 C 9.171875 7.164062 9.160156 7.164062 9.160156 7.164062 L 9.710938 1.488281 C 10.148438 1.53125 18.6875 1.410156 18.6875 1.410156 C 18.6875 1.410156 20.195312 1.492188 20.546875 1.410156 C 20.546875 1.410156 20.429688 0.769531 20.191406 0.769531 C 19.945312 0.566406 16.441406 0.425781 13.34375 0.425781 Z M 9 7.066406 C 9 7.066406 4.949219 8.03125 8.96875 8.070312 C 12.988281 8.113281 15.113281 12.078125 15.589844 14.027344 C 16.0625 15.980469 15.84375 17.757812 16.125 18.183594 L 16.613281 18.179688 C 16.613281 18.179688 23.472656 18.277344 23.863281 17.964844 C 26.394531 12.441406 32.550781 12.679688 34.632812 18.28125 L 36.394531 18.164062 C 36.394531 18.164062 38.453125 17.363281 38.648438 17 C 38.648438 17 38.765625 15.03125 38.609375 14.789062 C 38.171875 14.546875 35.128906 14.390625 34.777344 14.628906 C 34.539062 14.871094 34.699219 15.714844 34.699219 15.714844 L 34.058594 15.714844 C 34.058594 15.714844 34.976562 10.414062 34.617188 10.011719 C 30.585938 7.121094 20.386719 7.679688 20.386719 7.679688 L 20.292969 15.414062 L 16.914062 15.4375 C 16.285156 13.1875 14.921875 6.953125 9.003906 7.066406 Z M 9 7.066406 "/>
<path style=" stroke:none;fill-rule:nonzero;fill:rgb(14.901961%,14.901961%,14.901961%);fill-opacity:1;" d="M 9.5625 5.097656 C 9.984375 4.84375 11.269531 6.519531 11.269531 6.519531 C 11.269531 6.519531 13.253906 6.492188 13.476562 6.492188 C 13.703125 6.605469 13.671875 7.144531 13.671875 7.144531 L 14.816406 7.289062 C 15.039062 7.539062 14.960938 8.109375 14.761719 8.167969 L 13.839844 8.535156 L 12.386719 7.597656 C 12.023438 7.058594 9.339844 7.03125 9.339844 7.03125 Z M 9.5625 5.097656 "/>
<path style=" stroke:none;fill-rule:nonzero;fill:rgb(70.588235%,81.176471%,81.176471%);fill-opacity:0.27451;" d="M 9.789062 1.605469 L 9.371094 7.03125 C 9.371094 7.03125 12.332031 7.144531 12.835938 7.96875 C 14.398438 8.480469 16.746094 14.046875 16.859375 15.015625 L 20.128906 15.015625 C 20.128906 15.015625 20.070312 1.75 19.90625 1.578125 C 19.90625 1.578125 10.121094 1.347656 9.789062 1.605469 Z M 9.789062 1.605469 "/>
<path style=" stroke:none;fill-rule:nonzero;fill:rgb(0%,0%,0%);fill-opacity:1;" d="M 9.597656 1.320312 C 9.453125 1.605469 9.09375 7.257812 9.09375 7.257812 C 13.003906 7.117188 15.015625 9.957031 16.777344 15.46875 C 16.914062 15.613281 20.210938 15.605469 20.40625 15.492188 C 20.546875 15.238281 20.464844 1.546875 20.324219 1.40625 C 20.4375 1.207031 9.960938 1.152344 9.597656 1.320312 Z M 12.753906 1.890625 L 12.582031 7.371094 C 12.109375 7.144531 10.457031 6.773438 9.648438 6.859375 L 10.011719 1.917969 C 10.175781 1.75 12.695312 1.75 12.753906 1.890625 Z M 13.335938 1.890625 C 13.503906 1.777344 19.289062 1.804688 19.457031 1.917969 C 19.707031 1.972656 19.933594 14.558594 19.570312 14.699219 L 17.085938 14.699219 C 16.804688 12.742188 14.707031 8.796875 13.253906 7.660156 Z M 13.335938 1.890625 "/>
<path style="fill-rule:nonzero;fill:rgb(93.72549%,58.431373%,12.941176%);fill-opacity:1;stroke-width:0.6;stroke-linecap:butt;stroke-linejoin:miter;stroke:rgb(93.72549%,58.431373%,12.941176%);stroke-opacity:1;stroke-miterlimit:4;" d="M 132.95012 176.233303 C 132.95012 176.233303 136.669412 173.900572 138.142151 173.458581 C 137.817649 172.009832 137.617956 169.922652 137.692841 168.547568 C 137.692841 168.547568 134.672477 168.596678 134.023473 169.726211 C 132.775389 170.855744 132.20127 175.496651 132.95012 176.233303 Z M 132.95012 176.233303 " transform="matrix(0.15649,0,0,0.159081,-16.758466,-19.472914)"/>
<path style="fill-rule:nonzero;fill:rgb(0%,0%,0%);fill-opacity:1;stroke-width:1;stroke-linecap:butt;stroke-linejoin:miter;stroke:rgb(0%,0%,0%);stroke-opacity:1;stroke-miterlimit:4;" d="M 278.751336 212.69757 C 278.751336 212.69757 278.401873 188.584499 281.072773 186.791979 C 282.320858 185.539671 292.505226 185.171345 293.204153 186.963865 C 293.029422 189.468481 291.956069 210.364839 291.956069 210.364839 Z M 278.751336 212.69757 " transform="matrix(0.15649,0,0,0.159081,-16.758466,-19.472914)"/>
<path style=" stroke:none;fill-rule:nonzero;fill:rgb(12.54902%,39.607843%,18.039216%);fill-opacity:1;" d="M 26.613281 10.894531 L 29.351562 11.179688 L 29.265625 11.660156 L 26.554688 11.320312 Z M 26.613281 10.894531 "/>
<path style=" stroke:none;fill-rule:nonzero;fill:rgb(12.54902%,39.607843%,18.039216%);fill-opacity:1;" d="M 26.558594 11.976562 L 28.148438 12.96875 L 27.480469 13.023438 L 26.386719 12.3125 Z M 26.558594 11.976562 "/>
<path style=" stroke:none;fill-rule:nonzero;fill:rgb(90.588235%,93.72549%,16.470588%);fill-opacity:1;" d="M 20.910156 8.535156 L 20.964844 9.160156 C 20.964844 9.160156 30.046875 9.304688 31.640625 9.617188 C 30.832031 8.707031 20.910156 8.535156 20.910156 8.535156 Z M 20.910156 8.535156 "/>
<path style=" stroke:none;fill-rule:nonzero;fill:rgb(12.54902%,12.54902%,12.54902%);fill-opacity:1;" d="M 22.699219 18.394531 C 22.976562 18.5625 22.953125 18.535156 23.175781 18.367188 C 24.097656 13.628906 26.75 13.039062 30.800781 13.359375 C 30.96875 13.191406 31.082031 13.132812 30.96875 12.996094 C 25.855469 12.316406 23.621094 13.875 22.699219 18.394531 Z M 22.699219 18.394531 "/>
<path style=" stroke:none;fill-rule:nonzero;fill:url(#linear0);" d="M 19.863281 15.609375 L 19.238281 15.636719 L 16.808594 15.636719 L 15.851562 15.664062 C 15.882812 17.339844 16.304688 20.726562 16.304688 20.726562 C 16.5 20.96875 19.234375 20.988281 19.863281 20.910156 C 20.050781 19.246094 19.785156 17.40625 19.863281 15.609375 Z M 19.40625 16.289062 L 19.347656 18.035156 L 16.691406 18.089844 L 16.632812 16.316406 Z M 19.347656 18.6875 L 19.285156 20.414062 L 16.753906 20.414062 L 16.753906 18.714844 Z M 19.347656 18.6875 "/>
<path style="fill-rule:nonzero;fill:rgb(12.54902%,12.54902%,12.54902%);fill-opacity:1;stroke-width:1;stroke-linecap:butt;stroke-linejoin:miter;stroke:rgb(0%,0%,0%);stroke-opacity:1;stroke-miterlimit:4;" d="M 328.400133 188.756384 C 322.509174 187.675962 307.132775 187.872402 306.059422 189.640367 C 304.112411 190.352463 302.864326 205.355606 304.287143 206.7798 C 305.535227 208.744205 311.05176 213.385112 325.354807 213.925323 C 326.952355 213.925323 329.648217 189.984137 328.400133 188.756384 Z M 328.400133 188.756384 " transform="matrix(0.15649,0,0,0.159081,-16.758466,-19.472914)"/>
<path style="fill:none;stroke-width:1;stroke-linecap:butt;stroke-linejoin:miter;stroke:rgb(0%,0%,0%);stroke-opacity:1;stroke-miterlimit:4;" d="M 308.206127 189.100155 L 306.608579 208.57232 " transform="matrix(0.15649,0,0,0.159081,-16.758466,-19.472914)"/>
<path style="fill:none;stroke-width:1;stroke-linecap:butt;stroke-linejoin:miter;stroke:rgb(0%,0%,0%);stroke-opacity:1;stroke-miterlimit:4;" d="M 312.499538 188.044288 L 309.828637 210.70861 " transform="matrix(0.15649,0,0,0.159081,-16.758466,-19.472914)"/>
<path style="fill:none;stroke-width:1;stroke-linecap:butt;stroke-linejoin:miter;stroke:rgb(0%,0%,0%);stroke-opacity:1;stroke-miterlimit:4;" d="M 315.719595 188.388058 L 313.57289 211.789033 " transform="matrix(0.15649,0,0,0.159081,-16.758466,-19.472914)"/>
<path style="fill:none;stroke-width:1;stroke-linecap:butt;stroke-linejoin:miter;stroke:rgb(0%,0%,0%);stroke-opacity:1;stroke-miterlimit:4;" d="M 320.013006 188.044288 L 317.666607 212.869455 " transform="matrix(0.15649,0,0,0.159081,-16.758466,-19.472914)"/>
<path style="fill:none;stroke-width:1;stroke-linecap:butt;stroke-linejoin:miter;stroke:rgb(0%,0%,0%);stroke-opacity:1;stroke-miterlimit:4;" d="M 323.93199 188.388058 L 321.435822 213.753438 " transform="matrix(0.15649,0,0,0.159081,-16.758466,-19.472914)"/>
<path style="fill:none;stroke-width:1;stroke-linecap:butt;stroke-linejoin:miter;stroke:rgb(0%,0%,0%);stroke-opacity:1;stroke-miterlimit:4;" d="M 326.777623 188.92827 L 324.630918 213.925323 " transform="matrix(0.15649,0,0,0.159081,-16.758466,-19.472914)"/>
<path style="fill-rule:nonzero;fill:rgb(100%,100%,100%);fill-opacity:1;stroke-width:0.5;stroke-linecap:butt;stroke-linejoin:miter;stroke:rgb(0%,0%,0%);stroke-opacity:1;stroke-miterlimit:4;" d="M 328.325247 201.672347 C 328.325247 201.672347 324.131684 201.402241 322.958485 202.310779 C 322.034902 203.022875 321.735362 208.645985 322.559098 209.947403 L 326.777623 211.199711 C 328.050669 211.273376 329.298753 202.359889 328.325247 201.672347 Z M 328.325247 201.672347 " transform="matrix(0.15649,0,0,0.159081,-16.758466,-19.472914)"/>
<path style="fill:none;stroke-width:1;stroke-linecap:round;stroke-linejoin:round;stroke:rgb(0%,0%,0%);stroke-opacity:1;stroke-miterlimit:4;" d="M 328.225401 201.549572 C 328.225401 201.549572 323.682374 201.156691 323.008408 202.138893 C 322.334442 202.85099 321.360937 208.744205 322.334442 209.677297 C 322.758791 210.70861 326.927393 210.954161 326.927393 210.954161 " transform="matrix(0.15649,0,0,0.159081,-16.758466,-19.472914)"/>
<path style="fill-rule:nonzero;fill:rgb(100%,99.215686%,26.27451%);fill-opacity:1;stroke-width:0.5;stroke-linecap:round;stroke-linejoin:round;stroke:rgb(100%,99.215686%,26.27451%);stroke-opacity:1;stroke-miterlimit:4;" d="M 252.042331 126.484746 C 252.042331 128.449151 249.596085 130.020675 246.600683 130.020675 C 243.605281 130.020675 241.183997 128.449151 241.183997 126.484746 C 241.183997 124.544896 243.605281 122.948817 246.600683 122.948817 C 249.596085 122.948817 252.042331 124.544896 252.042331 126.484746 Z M 252.042331 126.484746 " transform="matrix(0.15649,0,0,0.159081,-16.758466,-19.472914)"/>
<path style="fill-rule:nonzero;fill:rgb(12.54902%,39.607843%,18.039216%);fill-opacity:1;stroke-width:1;stroke-linecap:butt;stroke-linejoin:miter;stroke:rgb(12.54902%,39.607843%,18.039216%);stroke-opacity:1;stroke-miterlimit:4;" d="M 236.616008 130.020675 L 240.435146 129.529574 L 241.433614 131.78864 C 244.703595 131.543089 251.29348 130.781882 251.543097 127.76161 C 245.477407 128.498262 241.683231 127.000403 241.683231 127.000403 L 235.367924 128.252711 Z M 236.616008 130.020675 " transform="matrix(0.15649,0,0,0.159081,-16.758466,-19.472914)"/>
<path style=" stroke:none;fill-rule:nonzero;fill:rgb(25.098039%,25.098039%,25.098039%);fill-opacity:1;" d="M 15.09375 17.480469 C 15.09375 21.605469 11.714844 24.953125 7.546875 24.953125 C 3.378906 24.953125 0.00390625 21.605469 0.00390625 17.480469 C 0.00390625 13.355469 3.378906 10.011719 7.546875 10.011719 C 11.714844 10.011719 15.09375 13.355469 15.09375 17.480469 Z M 15.09375 17.480469 "/>
<path style="fill-rule:nonzero;fill:url(#radial0);stroke-width:1.5;stroke-linecap:round;stroke-linejoin:round;stroke:rgb(19.215686%,19.215686%,19.215686%);stroke-opacity:1;stroke-miterlimit:4;" d="M 186.364087 233.571087 C 186.364087 251.28503 172.456752 265.633078 155.310722 265.633078 C 138.164693 265.633078 124.233543 251.28503 124.233543 233.571087 C 124.233543 215.857144 138.164693 201.484527 155.310722 201.484527 C 172.456752 201.484527 186.364087 215.857144 186.364087 233.571087 Z M 186.364087 233.571087 " transform="matrix(0.164032,0,0,0.158994,-18.167357,-19.612905)"/>
<path style=" stroke:none;fill-rule:nonzero;fill:url(#radial1);" d="M 8.394531 17.484375 C 8.394531 18.027344 7.960938 18.464844 7.425781 18.464844 C 6.894531 18.464844 6.460938 18.027344 6.460938 17.484375 C 6.460938 16.941406 6.894531 16.5 7.425781 16.5 C 7.960938 16.5 8.394531 16.941406 8.394531 17.484375 Z M 8.394531 17.484375 "/>
<path style=" stroke:none;fill-rule:nonzero;fill:rgb(25.098039%,25.098039%,25.098039%);fill-opacity:1;" d="M 34.765625 19.292969 C 34.765625 22.371094 32.253906 24.867188 29.160156 24.867188 C 26.066406 24.867188 23.558594 22.371094 23.558594 19.292969 C 23.558594 16.214844 26.066406 13.71875 29.160156 13.71875 C 32.253906 13.71875 34.765625 16.214844 34.765625 19.292969 Z M 34.765625 19.292969 "/>
<path style="fill-rule:nonzero;fill:url(#radial2);stroke-width:1.5;stroke-linecap:round;stroke-linejoin:round;stroke:rgb(19.215686%,19.215686%,19.215686%);stroke-opacity:1;stroke-miterlimit:4;" d="M 314.158732 243.919185 C 314.158732 254.506772 305.675538 263.106192 295.221744 263.106192 C 284.743919 263.106192 276.260725 254.506772 276.260725 243.919185 C 276.260725 233.307644 284.743919 224.732177 295.221744 224.732177 C 305.675538 224.732177 314.158732 233.307644 314.158732 243.919185 Z M 314.158732 243.919185 " transform="matrix(0.162546,0,0,0.163074,-18.666699,-20.444899)"/>
<path style=" stroke:none;fill-rule:nonzero;fill:rgb(100%,90.196078%,0%);fill-opacity:1;" d="M 30.511719 19.289062 C 30.511719 19.9375 29.996094 20.460938 29.363281 20.460938 C 28.726562 20.460938 28.214844 19.9375 28.214844 19.289062 C 28.214844 18.644531 28.726562 18.121094 29.363281 18.121094 C 29.996094 18.121094 30.511719 18.644531 30.511719 19.289062 Z M 30.511719 19.289062 "/>
</g>
</svg>
