<?xml version="1.0" encoding="UTF-8"?>
<svg xmlns="http://www.w3.org/2000/svg" xmlns:xlink="http://www.w3.org/1999/xlink" width="50pt" height="32pt" viewBox="0 0 50 32" version="1.1">
<defs>
<linearGradient id="linear0" gradientUnits="userSpaceOnUse" x1="222.52" y1="249.2" x2="221.34" y2="224.45" gradientTransform="matrix(0.202233,0,0,0.203624,-21.657094,-24.92533)">
<stop offset="0" style="stop-color:rgb(36.470588%,64.313725%,41.960784%);stop-opacity:1;"/>
<stop offset="1" style="stop-color:rgb(12.54902%,39.607843%,18.039216%);stop-opacity:1;"/>
</linearGradient>
<radialGradient id="radial0" gradientUnits="userSpaceOnUse" cx="155.31" cy="233.57" fx="155.31" fy="233.57" r="31.812" gradientTransform="matrix(1,0,0,1.0318,0.000000000000014211,-7.4166)">
<stop offset="0" style="stop-color:rgb(100%,90.196078%,0%);stop-opacity:1;"/>
<stop offset="0.68" style="stop-color:rgb(67.058824%,60.392157%,0%);stop-opacity:0.811765;"/>
<stop offset="1" style="stop-color:rgb(100%,90.196078%,0%);stop-opacity:1;"/>
</radialGradient>
<radialGradient id="radial1" gradientUnits="userSpaceOnUse" cx="155.06" cy="232.3" fx="155.06" fy="232.3" r="7.8211" gradientTransform="matrix(0.176687,0,0,0.176769,-17.798293,-18.684918)">
<stop offset="0" style="stop-color:rgb(46.27451%,41.960784%,1.960784%);stop-opacity:1;"/>
<stop offset="1" style="stop-color:rgb(74.509804%,68.235294%,6.666667%);stop-opacity:0.784314;"/>
</radialGradient>
<radialGradient id="radial2" gradientUnits="userSpaceOnUse" cx="295.22" cy="243.92" fx="295.22" fy="243.92" r="19.69" gradientTransform="matrix(1,0,0,1.0128,0,-3.1284)">
<stop offset="0" style="stop-color:rgb(100%,90.196078%,0%);stop-opacity:1;"/>
<stop offset="0.68" style="stop-color:rgb(67.058824%,60.392157%,0%);stop-opacity:0.811765;"/>
<stop offset="1" style="stop-color:rgb(100%,90.196078%,0%);stop-opacity:1;"/>
</radialGradient>
</defs>
<g id="surface1">
<path style="fill-rule:nonzero;fill:rgb(0%,0%,0%);fill-opacity:1;stroke-width:1;stroke-linecap:butt;stroke-linejoin:miter;stroke:rgb(0%,0%,0%);stroke-opacity:1;stroke-miterlimit:4;" d="M 165.133453 128.758516 L 156.557316 128.509129 C 155.031381 129.525863 154.529175 132.556881 155.552903 134.571166 L 164.631247 134.820553 Z M 165.133453 128.758516 " transform="matrix(0.202233,0,0,0.203624,-21.657094,-24.92533)"/>
<path style="fill-rule:nonzero;fill:rgb(14.901961%,14.901961%,14.901961%);fill-opacity:1;stroke-width:1;stroke-linecap:butt;stroke-linejoin:miter;stroke:rgb(14.901961%,14.901961%,14.901961%);stroke-opacity:1;stroke-miterlimit:4;" d="M 225.185731 163.749514 C 225.185731 163.749514 220.897663 161.600944 217.865109 162.502576 C 216.957275 164.286657 217.150431 168.39196 217.150431 168.39196 L 213.4032 168.02747 C 213.4032 168.02747 213.074834 168.718082 211.780687 169.101755 L 211.606847 171.960121 C 211.606847 171.960121 217.671953 176.257261 217.865109 178.751137 L 219.700094 203.939284 C 220.781769 205.896017 225.533413 203.747447 227.503606 205.186222 Z M 225.185731 163.749514 " transform="matrix(0.202233,0,0,0.203624,-21.657094,-24.92533)"/>
<path style="fill:none;stroke-width:1.4674;stroke-linecap:butt;stroke-linejoin:miter;stroke:rgb(14.901961%,14.901961%,14.901961%);stroke-opacity:1;stroke-miterlimit:4;" d="M 270.098055 149.91354 C 270.100602 150.485922 266.334743 150.968814 261.697195 150.968747 C 257.059647 150.96868 253.293007 150.481533 253.29046 149.909151 C 253.287914 149.33677 257.053772 148.853877 261.69132 148.853945 C 266.328868 148.854012 270.095508 149.341159 270.098055 149.91354 Z M 270.098055 149.91354 " transform="matrix(0.128029,-0.116241,0.108623,0.137008,-29.005218,18.310112)"/>
<path style="fill:none;stroke-width:1;stroke-linecap:butt;stroke-linejoin:miter;stroke:rgb(14.901961%,14.901961%,14.901961%);stroke-opacity:1;stroke-miterlimit:4;" d="M 204.807747 168.794817 L 212.012475 169.044204 " transform="matrix(0.202233,0,0,0.203624,-21.657094,-24.92533)"/>
<path style="fill:none;stroke-width:1;stroke-linecap:butt;stroke-linejoin:miter;stroke:rgb(14.901961%,14.901961%,14.901961%);stroke-opacity:1;stroke-miterlimit:4;" d="M 214.0213 160.58421 L 213.4032 168.02747 " transform="matrix(0.202233,0,0,0.203624,-21.657094,-24.92533)"/>
<path style="fill-rule:nonzero;fill:rgb(0%,0%,0%);fill-opacity:1;stroke-width:1;stroke-linecap:butt;stroke-linejoin:miter;stroke:rgb(0%,0%,0%);stroke-opacity:1;stroke-miterlimit:4;" d="M 224.644894 133.036473 L 225.166416 204.111937 L 211.954528 204.28459 L 215.721075 216.427847 L 235.171909 215.718052 L 236.427425 203.939284 L 229.821481 204.28459 L 228.932963 133.209126 Z M 224.644894 133.036473 " transform="matrix(0.202233,0,0,0.203624,-21.657094,-24.92533)"/>
<path style=" stroke:none;fill-rule:nonzero;fill:rgb(0%,0%,0%);fill-opacity:1;" d="M 2.839844 13.492188 C 7.878906 6.28125 19.097656 10.679688 20.402344 16.953125 L 20.886719 23.019531 L 30.949219 22.996094 L 30.640625 24.742188 L 19.097656 24.847656 C 19.609375 10.242188 4.328125 15.125 2.839844 13.492188 Z M 2.839844 13.492188 "/>
<path style=" stroke:none;fill-rule:nonzero;fill:rgb(12.54902%,39.607843%,18.039216%);fill-opacity:1;" d="M 17.242188 0.546875 C 14.125 0.546875 11.324219 0.664062 11.078125 0.933594 C 10.875 1.34375 10.417969 8.386719 10.113281 9.519531 L 8.476562 9.519531 C 8.476562 9.519531 8.371094 9.214844 7.960938 9.160156 C 7.453125 9.058594 5.675781 9.441406 5.675781 9.441406 C 5.472656 9.800781 5.308594 10.960938 5.308594 10.960938 C 5.308594 10.960938 3.011719 12.761719 2.753906 13.429688 C 2.941406 14.246094 4.75 9.914062 11.632812 10.308594 L 11.851562 9.171875 C 11.851562 9.171875 11.835938 9.171875 11.839844 9.171875 L 12.550781 1.90625 C 13.113281 1.960938 24.152344 1.804688 24.152344 1.804688 C 24.152344 1.804688 26.097656 1.910156 26.554688 1.804688 C 26.554688 1.804688 26.402344 0.984375 26.09375 0.984375 C 25.777344 0.726562 21.246094 0.542969 17.242188 0.546875 Z M 11.632812 9.046875 C 11.632812 9.046875 6.394531 10.28125 11.589844 10.332031 C 16.785156 10.382812 19.53125 15.460938 20.144531 17.957031 C 20.757812 20.453125 20.476562 22.730469 20.835938 23.277344 L 21.46875 23.269531 C 21.46875 23.269531 30.335938 23.394531 30.839844 22.996094 C 34.109375 15.925781 42.066406 16.230469 44.753906 23.402344 L 47.03125 23.25 C 47.03125 23.25 49.691406 22.222656 49.945312 21.761719 C 49.945312 21.761719 50.097656 19.238281 49.894531 18.929688 C 49.332031 18.621094 45.398438 18.417969 44.941406 18.726562 C 44.632812 19.035156 44.839844 20.113281 44.839844 20.113281 L 44.015625 20.113281 C 44.015625 20.113281 45.199219 13.328125 44.738281 12.8125 C 39.527344 9.113281 26.347656 9.832031 26.347656 9.832031 L 26.222656 19.730469 L 21.859375 19.757812 C 21.042969 16.878906 19.285156 8.902344 11.636719 9.046875 Z M 11.632812 9.046875 "/>
<path style=" stroke:none;fill-rule:nonzero;fill:rgb(14.901961%,14.901961%,14.901961%);fill-opacity:1;" d="M 12.359375 6.527344 C 12.902344 6.199219 14.5625 8.34375 14.5625 8.34375 C 14.5625 8.34375 17.128906 8.308594 17.417969 8.308594 C 17.707031 8.453125 17.667969 9.144531 17.667969 9.144531 L 19.148438 9.328125 C 19.4375 9.652344 19.332031 10.378906 19.078125 10.453125 L 17.886719 10.925781 L 16.007812 9.726562 C 15.539062 9.035156 12.070312 9 12.070312 9 Z M 12.359375 6.527344 "/>
<path style=" stroke:none;fill-rule:nonzero;fill:rgb(70.588235%,81.176471%,81.176471%);fill-opacity:0.27451;" d="M 12.648438 2.054688 L 12.109375 9 C 12.109375 9 15.9375 9.144531 16.585938 10.199219 C 18.609375 10.855469 21.640625 17.980469 21.785156 19.21875 L 26.011719 19.21875 C 26.011719 19.21875 25.9375 2.238281 25.722656 2.019531 C 25.722656 2.019531 13.082031 1.726562 12.648438 2.054688 Z M 12.648438 2.054688 "/>
<path style=" stroke:none;fill-rule:nonzero;fill:rgb(0%,0%,0%);fill-opacity:1;" d="M 12.402344 1.691406 C 12.21875 2.054688 11.75 9.289062 11.75 9.289062 C 16.804688 9.109375 19.402344 12.746094 21.679688 19.800781 C 21.859375 19.984375 26.121094 19.976562 26.371094 19.832031 C 26.554688 19.503906 26.445312 1.980469 26.265625 1.800781 C 26.410156 1.546875 12.871094 1.472656 12.402344 1.691406 Z M 16.480469 2.421875 L 16.261719 9.433594 C 15.648438 9.144531 13.515625 8.671875 12.46875 8.78125 L 12.9375 2.453125 C 13.152344 2.238281 16.40625 2.238281 16.480469 2.417969 Z M 17.234375 2.421875 C 17.453125 2.273438 24.929688 2.308594 25.144531 2.457031 C 25.46875 2.527344 25.761719 18.636719 25.289062 18.816406 L 22.078125 18.816406 C 21.714844 16.308594 19.007812 11.257812 17.128906 9.804688 Z M 17.234375 2.421875 "/>
<path style="fill-rule:nonzero;fill:rgb(93.72549%,58.431373%,12.941176%);fill-opacity:1;stroke-width:0.6;stroke-linecap:butt;stroke-linejoin:miter;stroke:rgb(93.72549%,58.431373%,12.941176%);stroke-opacity:1;stroke-miterlimit:4;" d="M 132.953622 176.238077 C 132.953622 176.238077 136.681538 173.897671 138.130209 173.456447 C 137.821159 172.017672 137.628003 169.926653 137.68595 168.545429 C 137.68595 168.545429 134.672713 168.60298 134.035297 169.734816 C 132.779781 170.866652 132.200312 175.489915 132.953622 176.238077 Z M 132.953622 176.238077 " transform="matrix(0.202233,0,0,0.203624,-21.657094,-24.92533)"/>
<path style="fill-rule:nonzero;fill:rgb(0%,0%,0%);fill-opacity:1;stroke-width:1;stroke-linecap:butt;stroke-linejoin:miter;stroke:rgb(0%,0%,0%);stroke-opacity:1;stroke-miterlimit:4;" d="M 278.747959 212.687033 C 278.747959 212.687033 278.400278 188.573171 281.065834 186.789091 C 282.32135 185.542153 292.500684 185.177663 293.215363 186.961744 C 293.041522 189.474803 291.959847 210.36581 291.959847 210.36581 Z M 278.747959 212.687033 " transform="matrix(0.202233,0,0,0.203624,-21.657094,-24.92533)"/>
<path style=" stroke:none;fill-rule:nonzero;fill:rgb(12.54902%,39.607843%,18.039216%);fill-opacity:1;" d="M 34.390625 13.945312 L 37.929688 14.308594 L 37.820312 14.925781 L 34.316406 14.488281 Z M 34.390625 13.945312 "/>
<path style=" stroke:none;fill-rule:nonzero;fill:rgb(12.54902%,39.607843%,18.039216%);fill-opacity:1;" d="M 34.320312 15.328125 L 36.378906 16.601562 L 35.511719 16.671875 L 34.101562 15.761719 Z M 34.320312 15.328125 "/>
<path style=" stroke:none;fill-rule:nonzero;fill:rgb(90.588235%,93.72549%,16.470588%);fill-opacity:1;" d="M 27.023438 10.925781 L 27.09375 11.726562 C 27.09375 11.726562 38.832031 11.910156 40.890625 12.308594 C 39.84375 11.144531 27.023438 10.925781 27.023438 10.925781 Z M 27.023438 10.925781 "/>
<path style=" stroke:none;fill-rule:nonzero;fill:rgb(12.54902%,12.54902%,12.54902%);fill-opacity:1;" d="M 29.332031 23.546875 C 29.695312 23.761719 29.660156 23.726562 29.949219 23.511719 C 31.140625 17.445312 34.570312 16.691406 39.804688 17.097656 C 40.023438 16.882812 40.167969 16.8125 40.023438 16.636719 C 33.414062 15.765625 30.527344 17.761719 29.332031 23.546875 Z M 29.332031 23.546875 "/>
<path style=" stroke:none;fill-rule:nonzero;fill:url(#linear0);" d="M 25.671875 19.980469 L 24.859375 20.015625 L 21.722656 20.015625 L 20.484375 20.050781 C 20.523438 22.195312 21.070312 26.53125 21.070312 26.53125 C 21.324219 26.839844 24.855469 26.867188 25.671875 26.765625 C 25.914062 24.636719 25.566406 22.28125 25.671875 19.980469 Z M 25.078125 20.847656 L 25.003906 23.085938 L 21.570312 23.15625 L 21.496094 20.882812 Z M 25.003906 23.921875 L 24.921875 26.128906 L 21.652344 26.128906 L 21.652344 23.957031 Z M 25.003906 23.921875 "/>
<path style="fill-rule:nonzero;fill:rgb(12.54902%,12.54902%,12.54902%);fill-opacity:1;stroke-width:1;stroke-linecap:butt;stroke-linejoin:miter;stroke:rgb(0%,0%,0%);stroke-opacity:1;stroke-miterlimit:4;" d="M 328.389116 188.745824 C 322.49785 187.671539 307.141928 187.863376 306.060253 189.647456 C 304.109375 190.357252 302.853859 205.358875 304.283216 206.778466 C 305.538731 208.754383 311.063 213.396829 325.356562 213.933971 C 326.959759 213.933971 329.644631 189.992762 328.389116 188.745824 Z M 328.389116 188.745824 " transform="matrix(0.202233,0,0,0.203624,-21.657094,-24.92533)"/>
<path style="fill:none;stroke-width:1;stroke-linecap:butt;stroke-linejoin:miter;stroke:rgb(0%,0%,0%);stroke-opacity:1;stroke-miterlimit:4;" d="M 308.204288 189.110314 L 306.601091 208.58173 " transform="matrix(0.202233,0,0,0.203624,-21.657094,-24.92533)"/>
<path style="fill:none;stroke-width:1;stroke-linecap:butt;stroke-linejoin:miter;stroke:rgb(0%,0%,0%);stroke-opacity:1;stroke-miterlimit:4;" d="M 312.492356 188.036029 L 309.8268 210.711116 " transform="matrix(0.202233,0,0,0.203624,-21.657094,-24.92533)"/>
<path style="fill:none;stroke-width:1;stroke-linecap:butt;stroke-linejoin:miter;stroke:rgb(0%,0%,0%);stroke-opacity:1;stroke-miterlimit:4;" d="M 315.718066 188.381335 L 313.574031 211.785401 " transform="matrix(0.202233,0,0,0.203624,-21.657094,-24.92533)"/>
<path style="fill:none;stroke-width:1;stroke-linecap:butt;stroke-linejoin:miter;stroke:rgb(0%,0%,0%);stroke-opacity:1;stroke-miterlimit:4;" d="M 320.006134 188.036029 L 317.668944 212.859686 " transform="matrix(0.202233,0,0,0.203624,-21.657094,-24.92533)"/>
<path style="fill:none;stroke-width:1;stroke-linecap:butt;stroke-linejoin:miter;stroke:rgb(0%,0%,0%);stroke-opacity:1;stroke-miterlimit:4;" d="M 323.927206 188.381335 L 321.435491 213.742135 " transform="matrix(0.202233,0,0,0.203624,-21.657094,-24.92533)"/>
<path style="fill:none;stroke-width:1;stroke-linecap:butt;stroke-linejoin:miter;stroke:rgb(0%,0%,0%);stroke-opacity:1;stroke-miterlimit:4;" d="M 326.785919 188.937661 L 324.641884 213.933971 " transform="matrix(0.202233,0,0,0.203624,-21.657094,-24.92533)"/>
<path style="fill-rule:nonzero;fill:rgb(100%,100%,100%);fill-opacity:1;stroke-width:0.5;stroke-linecap:butt;stroke-linejoin:miter;stroke:rgb(0%,0%,0%);stroke-opacity:1;stroke-miterlimit:4;" d="M 328.331169 201.675612 C 328.331169 201.675612 324.120363 201.407041 322.961425 202.308673 C 322.034275 203.018468 321.744541 208.639281 322.555797 209.94377 L 326.785919 211.190708 C 328.041434 211.267442 329.29695 202.366224 328.331169 201.675612 Z M 328.331169 201.675612 " transform="matrix(0.202233,0,0,0.203624,-21.657094,-24.92533)"/>
<path style="fill:none;stroke-width:1;stroke-linecap:round;stroke-linejoin:round;stroke:rgb(0%,0%,0%);stroke-opacity:1;stroke-miterlimit:4;" d="M 328.215275 201.541326 C 328.215275 201.541326 323.676103 201.157653 323.000056 202.13602 C 322.324009 202.845815 321.358228 208.735199 322.324009 209.675198 C 322.768269 210.711116 326.921128 210.960504 326.921128 210.960504 " transform="matrix(0.202233,0,0,0.203624,-21.657094,-24.92533)"/>
<path style="fill-rule:nonzero;fill:rgb(100%,99.215686%,26.27451%);fill-opacity:1;stroke-width:0.5;stroke-linecap:round;stroke-linejoin:round;stroke:rgb(100%,99.215686%,26.27451%);stroke-opacity:1;stroke-miterlimit:4;" d="M 252.03445 126.494844 C 252.03445 128.451578 249.600681 130.024638 246.606759 130.024638 C 243.593522 130.024638 241.179069 128.451578 241.179069 126.494844 C 241.179069 124.538111 243.593522 122.945867 246.606759 122.945867 C 249.600681 122.945867 252.03445 124.538111 252.03445 126.494844 Z M 252.03445 126.494844 " transform="matrix(0.202233,0,0,0.203624,-21.657094,-24.92533)"/>
<path style="fill-rule:nonzero;fill:rgb(12.54902%,39.607843%,18.039216%);fill-opacity:1;stroke-width:1;stroke-linecap:butt;stroke-linejoin:miter;stroke:rgb(12.54902%,39.607843%,18.039216%);stroke-opacity:1;stroke-miterlimit:4;" d="M 236.620581 130.024638 L 240.425759 129.525863 L 241.430172 131.789535 C 244.713828 131.540147 251.281141 130.791985 251.532244 127.760966 C 245.467138 128.509129 241.681275 126.99362 241.681275 126.99362 L 235.365066 128.259741 Z M 236.620581 130.024638 " transform="matrix(0.202233,0,0,0.203624,-21.657094,-24.92533)"/>
<path style=" stroke:none;fill-rule:nonzero;fill:rgb(25.098039%,25.098039%,25.098039%);fill-opacity:1;" d="M 19.503906 22.375 C 19.503906 27.65625 15.140625 31.9375 9.753906 31.9375 C 4.367188 31.9375 0.00390625 27.65625 0.00390625 22.375 C 0.00390625 17.09375 4.367188 12.816406 9.753906 12.816406 C 15.140625 12.816406 19.503906 17.09375 19.503906 22.375 Z M 19.503906 22.375 "/>
<path style="fill-rule:nonzero;fill:url(#radial0);stroke-width:1.5;stroke-linecap:round;stroke-linejoin:round;stroke:rgb(19.215686%,19.215686%,19.215686%);stroke-opacity:1;stroke-miterlimit:4;" d="M 186.36244 233.569769 C 186.36244 251.286032 172.468163 265.643307 155.312232 265.643307 C 138.156301 265.643307 124.243596 251.286032 124.243596 233.569769 C 124.243596 215.853506 138.156301 201.496231 155.312232 201.496231 C 172.468163 201.496231 186.36244 215.853506 186.36244 233.569769 Z M 186.36244 233.569769 " transform="matrix(0.21198,0,0,0.203512,-23.477815,-25.104519)"/>
<path style=" stroke:none;fill-rule:nonzero;fill:url(#radial1);" d="M 10.847656 22.378906 C 10.847656 23.074219 10.289062 23.636719 9.597656 23.636719 C 8.910156 23.636719 8.347656 23.074219 8.347656 22.378906 C 8.347656 21.683594 8.910156 21.121094 9.597656 21.121094 C 10.289062 21.121094 10.847656 21.683594 10.847656 22.378906 Z M 10.847656 22.378906 "/>
<path style=" stroke:none;fill-rule:nonzero;fill:rgb(25.098039%,25.098039%,25.098039%);fill-opacity:1;" d="M 44.925781 24.695312 C 44.925781 28.636719 41.683594 31.832031 37.683594 31.832031 C 33.6875 31.832031 30.445312 28.636719 30.445312 24.695312 C 30.445312 20.753906 33.6875 17.558594 37.683594 17.558594 C 41.683594 17.558594 44.925781 20.753906 44.925781 24.695312 Z M 44.925781 24.695312 "/>
<path style="fill-rule:nonzero;fill:url(#radial2);stroke-width:1.5;stroke-linecap:round;stroke-linejoin:round;stroke:rgb(19.215686%,19.215686%,19.215686%);stroke-opacity:1;stroke-miterlimit:4;" d="M 314.151217 243.924707 C 314.151217 254.516797 305.671458 263.106496 295.220528 263.106496 C 284.751002 263.106496 276.271244 254.516797 276.271244 243.924707 C 276.271244 233.313902 284.751002 224.724203 295.220528 224.724203 C 305.671458 224.724203 314.151217 233.313902 314.151217 243.924707 Z M 314.151217 243.924707 " transform="matrix(0.210059,0,0,0.208735,-24.123119,-26.169471)"/>
<path style=" stroke:none;fill-rule:nonzero;fill:rgb(100%,90.196078%,0%);fill-opacity:1;" d="M 39.429688 24.691406 C 39.429688 25.519531 38.765625 26.1875 37.945312 26.1875 C 37.125 26.1875 36.460938 25.519531 36.460938 24.691406 C 36.460938 23.867188 37.125 23.195312 37.945312 23.195312 C 38.765625 23.195312 39.429688 23.867188 39.429688 24.691406 Z M 39.429688 24.691406 "/>
</g>
</svg>
